<svg width="28" height="28" viewBox="0 0 28 28" fill="none" xmlns="http://www.w3.org/2000/svg">
<path fill-rule="evenodd" clip-rule="evenodd" d="M24.3262 13.9921C26.5237 12.6872 28 10.2744 28 7.5117C28 3.36315 24.6732 0 20.5695 0C17.7202 0 15.2469 1.62185 14 4.00121C12.7531 1.62185 10.2798 0 7.43055 0C3.32682 0 0 3.36315 0 7.5117C0 10.2744 1.4763 12.6872 3.67376 13.9921C1.4763 15.2969 0 17.7097 0 20.4724C0 24.621 3.32682 27.9841 7.43055 27.9841C10.2798 27.9841 12.7531 26.3623 14 23.9829C15.2469 26.3623 17.7202 27.9841 20.5695 27.9841C24.6732 27.9841 28 24.621 28 20.4724C28 17.7097 26.5237 15.2969 24.3262 13.9921Z" fill="black"/>
</svg>
