<svg width="32" height="32" viewBox="0 0 32 32" fill="none" xmlns="http://www.w3.org/2000/svg">
<path fill-rule="evenodd" clip-rule="evenodd" d="M1.25948 29.4764L8.55156 22.1843C6.59548 19.9355 5.41118 17.0013 5.41118 13.7944C5.41118 6.7352 11.153 1 18.2056 1C25.2648 1 31 6.74185 31 13.7944C31 20.847 25.2582 26.5888 18.2056 26.5888C14.9987 26.5888 12.0645 25.4045 9.8157 23.4484L2.52362 30.7405C2.35063 30.9135 2.11776 31.0067 1.89155 31.0067C1.66534 31.0067 1.43247 30.9202 1.25948 30.7405C0.913507 30.3945 0.913507 29.8224 1.25948 29.4764ZM29.2102 13.7944C29.2102 7.72655 24.2735 2.79641 18.2122 2.79641C12.1444 2.79641 7.21424 7.7332 7.21424 13.7944C7.21424 19.8556 12.1444 24.7991 18.2122 24.7991C24.2735 24.7991 29.2102 19.8623 29.2102 13.7944Z" fill="black"/>
</svg>
