<svg width="32" height="32" viewBox="0 0 32 32" fill="none" xmlns="http://www.w3.org/2000/svg">
<path fill-rule="evenodd" clip-rule="evenodd" d="M15.3902 17.2425H15.5033H15.5457H15.6164C17.687 17.2094 19.3618 16.5268 20.5986 15.2214C23.3193 12.3454 22.867 7.4152 22.8176 6.94471C22.6409 3.41271 20.86 1.72292 19.3901 0.934355C18.2947 0.344585 17.0156 0.0265065 15.5881 0H15.5386H15.5104H15.468C14.6835 0 13.1429 0.119279 11.6659 0.907848C10.1819 1.69642 8.37274 3.38621 8.19607 6.94471C8.1466 7.4152 7.69432 12.3454 10.4151 15.2214C11.6447 16.5268 13.3196 17.2094 15.3902 17.2425ZM10.0829 7.11037C10.0829 7.09943 10.0851 7.08849 10.087 7.07865C10.0886 7.07061 10.09 7.06332 10.09 7.05736C10.3232 2.30607 13.9203 1.79582 15.4609 1.79582H15.4892H15.5457C17.4538 1.83558 20.6975 2.56451 20.9166 7.05736C20.9166 7.07724 20.9166 7.09712 20.9236 7.11037C20.9307 7.15676 21.4254 11.6629 19.1781 14.0352C18.2877 14.9762 17.1004 15.44 15.5386 15.4533H15.5033H15.468C13.9132 15.44 12.7189 14.9762 11.8355 14.0352C9.59533 11.6761 10.0759 7.15013 10.0829 7.11037ZM30.0259 25.3999V25.4198C30.0329 25.7643 30.04 27.5337 29.6866 28.415C29.616 28.5873 29.4817 28.7331 29.3192 28.8325L29.3162 28.8343C29.0634 28.9845 23.9895 32 15.5245 32C7.02296 32 1.94183 28.965 1.72982 28.8325C1.56021 28.7331 1.43301 28.5873 1.36234 28.415C0.98779 27.527 0.994856 25.7577 1.00192 25.4131V25.3932C1.00899 25.3402 1.00899 25.2872 1.00899 25.2276L1.00931 25.2176C1.05188 23.9065 1.15106 20.8515 4.21032 19.8666C4.23152 19.86 4.25272 19.8534 4.28098 19.8468C7.48231 19.0847 10.1183 17.3618 10.1465 17.3419C10.5776 17.0569 11.1713 17.1563 11.4751 17.5606C11.779 17.9648 11.673 18.5214 11.2419 18.8064C11.2365 18.8096 11.2257 18.8165 11.2097 18.8266C10.8681 19.0425 8.15129 20.7595 4.7898 21.5697C3.14321 22.1197 2.95947 23.7697 2.91 25.2806C2.91 25.3113 2.90813 25.3402 2.90631 25.3683C2.9046 25.3948 2.90293 25.4205 2.90293 25.4463C2.8888 26.0427 2.93827 26.9638 3.05134 27.4939C4.20325 28.1035 8.71902 30.2174 15.5174 30.2174C22.3441 30.2174 26.8316 28.1102 27.9764 27.5005C28.0895 26.9704 28.1319 26.0493 28.1248 25.4529C28.1178 25.3999 28.1178 25.3469 28.1178 25.2872C28.0683 23.7764 27.8846 22.1263 26.238 21.5763C22.7186 20.7281 19.906 18.8925 19.7859 18.813C19.3548 18.5281 19.2488 17.9714 19.5526 17.5672C19.8565 17.163 20.4501 17.0636 20.8812 17.3485C20.9095 17.3684 23.5596 19.0913 26.7468 19.8534C26.7574 19.8567 26.7698 19.86 26.7821 19.8633C26.7945 19.8666 26.8069 19.87 26.8175 19.8733C29.8772 20.8517 29.9759 23.9075 30.0185 25.2248L30.0188 25.2342C30.0188 25.2649 30.0207 25.2938 30.0225 25.3219C30.0242 25.3484 30.0259 25.3741 30.0259 25.3999Z" fill="black"/>
</svg>
